<svg xmlns="http://www.w3.org/2000/svg" version="1.1" xmlns:xlink="http://www.w3.org/1999/xlink" xmlns:svgjs="http://svgjs.dev/svgjs" width="1000" height="1000" viewBox="0 0 1000 1000"><rect width="1000" height="1000" fill="#000000"></rect><g transform="matrix(0.7,0,0,0.7,149.57575757575756,282.1265587044535)"><svg viewBox="0 0 396 247" data-background-color="#0b022d" preserveAspectRatio="xMidYMid meet" height="623" width="1000" xmlns="http://www.w3.org/2000/svg" xmlns:xlink="http://www.w3.org/1999/xlink"><defs></defs><g id="tight-bounds" transform="matrix(1,0,0,1,0.2400000000000091,-0.09999999999999432)"><svg viewBox="0 0 395.52 247.2" height="247.2" width="395.52"><g><svg></svg></g><g><svg viewBox="0 0 395.52 247.2" height="247.2" width="395.52"><g transform="matrix(2.452, 0, 0, 2.452, 75.16, 1)"><svg xmlns="http://www.w3.org/2000/svg" xmlns:xlink="http://www.w3.org/1999/xlink" version="1.1" x="0" y="0" viewBox="0 0 100 100" enable-background="new 0 0 100 100" xml:space="preserve" height="100" width="100" class="icon-none" data-fill-palette-color="accent" id="none"><g fill="#3d6fcb" data-fill-palette-color="accent"><path fill="#ffffff" d="M50 0C22.43 0 0 22.43 0 50s22.43 50 50 50 50-22.43 50-50S77.57 0 50 0zM84.24 21.362c-0.515 1.485-2.57 2.992-5.862 4.32-1.31-3.139-2.878-6.08-4.697-8.756-2.444-3.596-5.225-6.549-8.239-8.825C72.823 10.823 79.283 15.441 84.24 21.362zM75.85 26.591c-3.593 1.146-8.194 2.094-13.565 2.679-0.521-4.174-1.2-8.044-2.03-11.468-1.276-5.265-2.835-9.153-4.657-11.675C64.148 8.473 71.439 16.082 75.85 26.591zM50 5.357c4.187 0 7.814 9.814 9.613 24.165-3.01 0.249-6.223 0.389-9.613 0.389s-6.604-0.14-9.613-0.389C42.186 15.172 45.813 5.357 50 5.357zM39.746 17.802c-0.83 3.424-1.509 7.294-2.03 11.468-5.371-0.585-9.973-1.532-13.565-2.679 4.41-10.509 11.7-18.118 20.252-20.464C42.581 8.648 41.022 12.537 39.746 17.802zM34.559 8.102c-3.015 2.276-5.795 5.229-8.24 8.825-1.82 2.676-3.388 5.617-4.697 8.756-3.292-1.328-5.348-2.835-5.862-4.32C20.717 15.441 27.177 10.823 34.559 8.102zM19.933 82.998c2.347 0.862 5.033 1.6 7.943 2.206 2.046 2.646 4.289 4.888 6.683 6.694C29.104 89.887 24.149 86.841 19.933 82.998zM32.011 85.957c2.923 0.462 5.991 0.807 9.103 1.034 0.975 2.905 2.073 5.199 3.289 6.882C39.83 92.618 35.617 89.863 32.011 85.957zM50 94.643c-2.217 0-4.277-2.756-5.994-7.476 2.004 0.099 4.011 0.149 5.994 0.149 2.04 0 4.038-0.048 5.988-0.137C54.273 91.892 52.215 94.643 50 94.643zM58.877 87.018c3.192-0.221 6.224-0.561 9.057-1.003-3.593 3.874-7.786 6.61-12.337 7.858C56.809 92.195 57.904 89.912 58.877 87.018zM65.441 91.898c2.377-1.794 4.603-4.017 6.638-6.638 2.967-0.621 5.641-1.366 7.944-2.221C75.817 86.863 70.878 89.894 65.441 91.898zM86.366 75.877l-0.042-0.022c-1.185 2.19-5.433 4.417-11.906 6.082 3.898-6.118 6.561-13.489 7.806-21.463 0.376-0.105 0.756-0.209 1.122-0.318 4.854-1.443 8.538-3.143 10.997-5.042C93.466 62.798 90.638 69.885 86.366 75.877zM89.301 55.025l-3.062 1.994c-0.278 0.182-4.121 2.656-9.624 4.793 0.944-0.193 1.876-0.394 2.776-0.608-1.479 8.421-4.591 15.874-8.806 21.597-3.236 0.638-6.884 1.141-10.868 1.458 0.183-0.664 0.362-1.346 0.536-2.061 1.203-4.964 2.089-10.863 2.63-17.279-0.438 0.019-0.876 0.03-1.315 0.03h-1.38c-0.662 7.683-1.812 14.412-3.308 19.502-2.206 0.121-4.502 0.188-6.881 0.188-2.384 0-4.677-0.064-6.88-0.183-1.496-5.09-2.646-11.82-3.308-19.506h-2.692c0.542 6.404 1.426 12.293 2.627 17.248 0.174 0.719 0.355 1.404 0.54 2.072-3.987-0.31-7.622-0.803-10.842-1.429-3.638-4.927-6.449-11.146-8.111-18.159-1-0.079-1.933-0.177-2.805-0.293 1.432 6.488 3.821 12.486 7.088 17.599-6.793-1.73-11.104-4.092-12.074-6.413l-0.095 0.039c-4.167-5.936-6.926-12.929-7.79-20.501 0.682 0.526 1.466 1.035 2.335 1.53 0.066-0.99 0.366-1.865 0.833-2.629-1.612-0.972-2.777-1.98-3.441-2.993C5.375 50.68 5.357 50.343 5.357 50c0-9.867 3.208-18.983 8.63-26.373 1.255 1.748 3.596 3.253 6.679 4.503-2.162 5.965-3.409 12.565-3.651 19.428 0.798-0.45 1.708-0.851 2.738-1.16 0.34-6.23 1.54-12.103 3.439-17.35 4.035 1.311 8.961 2.266 14.221 2.852-0.457 4.327-0.746 8.941-0.857 13.705 0.933 0.005 1.833 0.013 2.677 0.02 0.112-4.743 0.404-9.268 0.848-13.459 3.26 0.281 6.608 0.424 9.919 0.424s6.659-0.143 9.919-0.424c0.212 2.006 0.39 4.09 0.529 6.236h2.672c-0.144-2.218-0.312-4.402-0.534-6.502 5.261-0.586 10.187-1.541 14.222-2.852 1.115 3.08 1.99 6.376 2.595 9.831h2.722c-0.624-3.743-1.558-7.349-2.79-10.749 3.084-1.25 5.424-2.755 6.68-4.503 5.421 7.39 8.629 16.506 8.629 26.373 0 0.343-0.018 0.68-0.025 1.021C93.718 52.392 91.9 53.755 89.301 55.025z" data-fill-palette-color="accent"></path><path fill="#ffffff" d="M28.987 60.897c13.854 0 25.381-0.002 32.58-0.003 11.298 0 22.46-7.27 22.46-7.27l-3.605-0.816 3.655-9.877h-5.079l-9.3 8.529L60.4 50.558l4.64-8.102h-6.508l-13.867 7.287c0 0-16.292-0.272-21.398 0.107-5.373 0.397-7.414 4.236-7.414 4.236s-3.827 0.809-3.828 2.965C12.024 59.207 16.598 60.896 28.987 60.897z" data-fill-palette-color="accent"></path></g></svg></g><rect width="348.05760000000004" height="69.2195408390576" fill="#0b022d" y="88.9902295804712" x="23.731199999999973" data-fill-palette-color="quaternary"></rect><g transform="matrix(1,0,0,1,39.55199999999999,102.03777186966218)"><svg viewBox="0 0 316.416 43.12445626067562" height="43.12445626067562" width="316.416"><g><svg viewBox="0 0 316.416 43.12445626067562" height="43.12445626067562" width="316.416"><g><svg viewBox="0 0 316.416 43.12445626067562" height="43.12445626067562" width="316.416"><g><svg viewBox="0 0 316.416 43.12445626067562" height="43.12445626067562" width="316.416"><g><svg viewBox="0 0 316.416 43.12445626067562" height="43.12445626067562" width="316.416"><g transform="matrix(1,0,0,1,0,0)"><svg width="316.416" viewBox="1.4656100273132324 -21.330291748046875 351.154541015625 47.858978271484375" height="43.12445626067562" data-palette-color="#f7fff7"><path d="M7.645 13.41l-6.179-0.937 5.128-33.803 12.507 1.897c2.702 0.41 4.872 1.201 6.508 2.373 1.629 1.171 2.76 2.61 3.39 4.318 0.631 1.707 0.798 3.543 0.5 5.507v0c-0.284 1.872-0.963 3.522-2.036 4.951-1.074 1.435-2.566 2.493-4.476 3.174-1.917 0.68-4.26 0.81-7.028 0.39v0l-6.328-0.96zM12.011-15.37l-1.62 10.678 5.942 0.901c2.155 0.327 3.78 0.085 4.875-0.727 1.093-0.805 1.764-2.028 2.013-3.67v0c0.254-1.674-0.022-3.058-0.827-4.151-0.805-1.093-2.285-1.803-4.44-2.13v0zM44.148 19.011v0c-2.488-0.307-4.673-1.077-6.557-2.311-1.883-1.233-3.29-2.925-4.22-5.075-0.93-2.15-1.206-4.76-0.826-7.83v0l2.585-20.941 6.203 0.766-2.592 20.99c-0.327 2.647 0.068 4.697 1.186 6.152 1.118 1.448 2.805 2.311 5.06 2.589v0c2.23 0.275 4.073-0.152 5.529-1.282 1.45-1.138 2.339-3.03 2.666-5.676v0l2.591-20.991 6.203 0.766-2.585 20.941c-0.379 3.07-1.304 5.532-2.776 7.386-1.478 1.853-3.304 3.146-5.476 3.878-2.173 0.733-4.503 0.945-6.991 0.638zM86.712 22.853l-22.219-2.116 3.243-34.036 22.219 2.116-0.477 5.008-15.998-1.524-0.889 9.337 14.534 1.385-0.463 4.858-14.534-1.385-0.936 9.826 15.997 1.524zM104.597 24.047l-11.644-0.775 2.27-34.114 11.644 0.774c3.998 0.266 7.24 1.193 9.727 2.782 2.494 1.582 4.281 3.692 5.361 6.33 1.081 2.631 1.507 5.669 1.278 9.115v0c-0.229 3.439-1.053 6.394-2.474 8.865-1.42 2.464-3.471 4.319-6.153 5.564-2.675 1.238-6.011 1.725-10.009 1.459zM101.105-5.109l-1.559 23.438 5.118 0.341c2.86 0.19 5.149-0.122 6.867-0.937 1.718-0.821 2.991-2.076 3.819-3.764 0.834-1.688 1.333-3.766 1.497-6.235v0c0.162-2.441-0.057-4.561-0.659-6.358-0.595-1.803-1.689-3.233-3.283-4.287-1.594-1.048-3.821-1.667-6.681-1.858v0zM144.008 26.517v0c-3.418-0.112-6.379-0.96-8.881-2.544-2.509-1.583-4.443-3.725-5.802-6.424-1.359-2.699-1.981-5.788-1.867-9.266v0c0.115-3.485 0.938-6.529 2.472-9.134 1.533-2.604 3.604-4.614 6.211-6.029 2.601-1.409 5.611-2.057 9.029-1.944v0c3.385 0.111 6.339 0.956 8.862 2.532 2.523 1.584 4.453 3.725 5.792 6.424 1.345 2.699 1.961 5.791 1.846 9.276v0c-0.114 3.478-0.931 6.52-2.451 9.124-1.513 2.605-3.58 4.615-6.202 6.03-2.621 1.415-5.624 2.066-9.009 1.954zM144.193 20.9v0c3.252 0.107 5.882-0.88 7.891-2.963 2.01-2.088 3.076-5.002 3.199-8.739v0c0.123-3.745-0.749-6.722-2.618-8.931-1.868-2.216-4.428-3.377-7.679-3.484v0c-3.252-0.107-5.889 0.884-7.912 2.971-2.023 2.081-3.096 4.994-3.219 8.739v0c-0.123 3.738 0.756 6.715 2.638 8.932 1.882 2.21 4.448 3.368 7.7 3.475zM192.965 26.432l-6.249 0.055-0.257-29.159-9.959 0.088-0.045-5.03 26.219-0.231 0.044 5.03-10.009 0.088zM214.17 25.964l-6.247 0.214-1.17-34.17 12.543-0.43c2.732-0.094 5.003 0.296 6.814 1.167 1.804 0.865 3.173 2.073 4.106 3.622 0.933 1.542 1.433 3.276 1.499 5.202v0c0.071 2.079-0.41 4-1.444 5.763-1.034 1.763-2.69 3.074-4.968 3.932v0l7.566 14.059-7.176 0.246-6.808-13.255-5.177 0.178zM213.178-2.979l0.373 10.883 5.907-0.202c2.085-0.071 3.597-0.627 4.535-1.666 0.945-1.046 1.389-2.399 1.332-4.058v0c-0.056-1.626-0.58-2.912-1.573-3.859-0.993-0.94-2.565-1.373-4.717-1.299v0zM243.034 24.659l-6.536 0.425 10.268-34.929 7.015-0.456 14.69 33.308-6.626 0.431-3.247-7.716-13.302 0.864zM250.684-2.904l-3.999 14.499 9.89-0.642zM286.348 21.301l-7.628 0.704-15.6-32.895 6.661-0.615 12.185 26.783 7.123-28.566 6.572-0.607zM325.302 17.005l-22.164 2.632-4.032-33.952 22.165-2.631 0.593 4.994-15.958 1.895 1.106 9.315 14.498-1.722 0.575 4.846-14.498 1.722 1.164 9.801 15.958-1.895zM352.62 13.06l-21.171 3.052-4.879-33.84 6.186-0.892 4.183 29.01 14.985-2.161z" opacity="1" transform="matrix(1,0,0,1,0,0)" fill="#ffffff" class="undefined-text-0" data-fill-palette-color="primary" id="text-0"></path></svg></g></svg></g></svg></g></svg></g><g></g></svg></g></svg></g></svg></g></svg><rect width="395.52" height="247.2" fill="none" stroke="none" visibility="hidden"></rect></g></svg></g></svg>